<svg width="35" height="43" viewBox="0 0 35 43" fill="none" xmlns="http://www.w3.org/2000/svg">
<path opacity="0.2" d="M9.96716 9.26394L17.1941 1.18677L21.0201 2.037L26.9717 9.26394V15.2155L23.5708 20.3169L17.1941 21.5923L12.5178 19.4667L9.96716 15.6407V9.26394Z" fill="#482740"/>
<path d="M1.32324 25.1349H6.0746C6.65786 25.1349 7.23318 25.2658 7.75494 25.5197L11.806 27.4798C12.3278 27.7317 12.9031 27.8627 13.4883 27.8627H15.5555C17.5552 27.8627 19.178 29.4319 19.178 31.3682C19.178 31.4475 19.1245 31.515 19.0471 31.5368L14.0061 32.9315C13.1016 33.1813 12.137 33.0939 11.2922 32.6855L6.96139 30.5905M9.25871 12.9123C9.25871 8.762 13.0201 4.65937 15.6587 2.29262C16.3535 1.67051 17.2534 1.32654 18.1861 1.32654C19.1188 1.32654 20.0187 1.67051 20.7136 2.29262C23.3521 4.66135 27.1135 8.76002 27.1135 12.9142C27.1135 16.9812 23.733 21.1671 18.1861 21.1671C12.6392 21.1671 9.25871 16.9812 9.25871 12.9123Z" stroke="#F249C8" stroke-width="2.55069" stroke-linecap="round" stroke-linejoin="round"/>
<path d="M19.1781 30.0946L28.29 27.2953C29.0833 27.0519 29.9331 27.0653 30.7183 27.3336C31.5035 27.6018 32.184 28.1113 32.6624 28.7892C33.3945 29.8009 33.0969 31.2531 32.0296 31.8681L17.1208 40.4722C16.6547 40.7419 16.1384 40.9139 15.6036 40.9777C15.0688 41.0414 14.5267 40.9957 14.0101 40.8431L1.3233 37.0778" stroke="#F249C8" stroke-width="2.55069" stroke-linecap="round" stroke-linejoin="round"/>
</svg>
