<svg width="44" height="41" viewBox="0 0 44 41" fill="none" xmlns="http://www.w3.org/2000/svg">
<mask id="mask0_1802_2028" style="mask-type:luminance" maskUnits="userSpaceOnUse" x="0" y="0" width="44" height="41">
<path d="M2.24442 4.62913C2.24442 4.10298 2.45343 3.59837 2.82548 3.22632C3.19752 2.85428 3.70213 2.64526 4.22828 2.64526H24.0669C24.5931 2.64526 25.0977 2.85428 25.4698 3.22632C25.8418 3.59837 26.0508 4.10298 26.0508 4.62913V38.3549H4.22828C3.70213 38.3549 3.19752 38.1458 2.82548 37.7738C2.45343 37.4018 2.24442 36.8971 2.24442 36.371V4.62913Z" fill="#7534FF" stroke="white" stroke-width="3.40091" stroke-linejoin="round"/>
<path d="M19.1073 38.3549V29.4275C19.1073 28.6382 18.7938 27.8813 18.2357 27.3233C17.6776 26.7652 16.9207 26.4517 16.1315 26.4517H12.1638C11.3745 26.4517 10.6176 26.7652 10.0595 27.3233C9.50148 27.8813 9.18796 28.6382 9.18796 29.4275V38.3549" fill="#7534FF"/>
<path d="M19.1073 38.3549V29.4275C19.1073 28.6382 18.7938 27.8813 18.2357 27.3233C17.6776 26.7652 16.9207 26.4517 16.1315 26.4517H12.1638C11.3745 26.4517 10.6176 26.7652 10.0595 27.3233C9.50148 27.8813 9.18796 28.6382 9.18796 29.4275V38.3549" stroke="white" stroke-width="3.40091" stroke-linejoin="round"/>
<path d="M26.0508 20.5H39.9379C40.4641 20.5 40.9687 20.709 41.3407 21.0811C41.7128 21.4531 41.9218 21.9577 41.9218 22.4839V36.3709C41.9218 36.8971 41.7128 37.4017 41.3407 37.7737C40.9687 38.1458 40.4641 38.3548 39.9379 38.3548H26.0508V20.5Z" fill="#7534FF" stroke="white" stroke-width="3.40091" stroke-linejoin="round"/>
<path d="M10.1799 14.5484H18.1153ZM32.0024 26.4516H35.9701ZM32.0024 32.4032H35.9701ZM14.1476 10.5807V18.5162ZM5.22021 38.3548H23.075Z" fill="#7534FF"/>
<path d="M10.1799 14.5484H18.1153M32.0024 26.4516H35.9701M32.0024 32.4032H35.9701M14.1476 10.5807V18.5162M5.22021 38.3548H23.075" stroke="white" stroke-width="3.40091" stroke-linecap="round" stroke-linejoin="round"/>
</mask>
<g mask="url(#mask0_1802_2028)">
<path d="M-1.29818 -2.88128H45.4644V43.8813H-1.29818V-2.88128Z" fill="#7534FF" stroke="white" stroke-width="0.850229"/>
</g>
</svg>
