<svg width="35" height="34" viewBox="0 0 35 34" fill="none" xmlns="http://www.w3.org/2000/svg">
<rect x="0.881409" y="0.496094" width="33.163" height="33.163" rx="3.76852" fill="white"/>
<g clip-path="url(#clip0_7_4870)">
<path d="M24.9852 13.9723C24.9498 13.1714 24.8203 12.6208 24.6348 12.1436C24.4434 11.6372 24.1489 11.1837 23.7631 10.8068C23.3861 10.4239 22.9297 10.1265 22.4291 9.93807C21.9492 9.75252 21.4014 9.623 20.6005 9.58769C19.7936 9.54938 19.5374 9.54053 17.4908 9.54053C15.4442 9.54053 15.1881 9.54938 14.3841 9.5847C13.5832 9.62001 13.0326 9.74965 12.5555 9.93508C12.049 10.1265 11.5955 10.421 11.2186 10.8068C10.8357 11.1837 10.5384 11.6401 10.3499 12.1407C10.1643 12.6208 10.0348 13.1684 9.99949 13.9694C9.96119 14.7763 9.95233 15.0324 9.95233 17.079C9.95233 19.1256 9.96119 19.3818 9.9965 20.1857C10.0318 20.9867 10.1615 21.5373 10.347 22.0144C10.5384 22.5209 10.8357 22.9744 11.2186 23.3513C11.5955 23.7341 12.0519 24.0316 12.5525 24.22C13.0326 24.4055 13.5802 24.5351 14.3813 24.5704C15.1851 24.6058 15.4414 24.6146 17.488 24.6146C19.5345 24.6146 19.7907 24.6058 20.5946 24.5704C21.3956 24.5351 21.9462 24.4055 22.4232 24.22C23.4363 23.8283 24.2372 23.0274 24.6289 22.0144C24.8143 21.5344 24.944 20.9867 24.9793 20.1857C25.0146 19.3818 25.0235 19.1256 25.0235 17.079C25.0235 15.0324 25.0205 14.7763 24.9852 13.9723ZM23.6277 20.1268C23.5953 20.863 23.4716 21.2606 23.3685 21.5256C23.1153 22.1823 22.5941 22.7035 21.9374 22.9568C21.6723 23.0598 21.2719 23.1835 20.5386 23.2158C19.7435 23.2512 19.5051 23.26 17.4938 23.26C15.4825 23.26 15.2411 23.2512 14.4489 23.2158C13.7127 23.1835 13.3152 23.0598 13.0502 22.9568C12.7234 22.836 12.4259 22.6446 12.1845 22.3943C11.9342 22.1498 11.7427 21.8554 11.622 21.5286C11.5189 21.2635 11.3952 20.863 11.3629 20.1298C11.3275 19.3347 11.3188 19.0962 11.3188 17.0849C11.3188 15.0736 11.3275 14.8322 11.3629 14.0401C11.3952 13.3039 11.5189 12.9064 11.622 12.6414C11.7427 12.3144 11.9342 12.0171 12.1874 11.7755C12.4318 11.5252 12.7262 11.3338 13.0532 11.2132C13.3182 11.1101 13.7187 10.9864 14.4519 10.954C15.247 10.9187 15.4855 10.9098 17.4967 10.9098C19.511 10.9098 19.7494 10.9187 20.5416 10.954C21.2778 10.9864 21.6753 11.1101 21.9404 11.2132C22.2671 11.3338 22.5646 11.5252 22.8061 11.7755C23.0564 12.02 23.2478 12.3144 23.3685 12.6414C23.4716 12.9064 23.5953 13.3068 23.6277 14.0401C23.663 14.8352 23.6719 15.0736 23.6719 17.0849C23.6719 19.0962 23.663 19.3318 23.6277 20.1268Z" fill="black"/>
<path d="M17.4908 13.2065C15.353 13.2065 13.6185 14.9409 13.6185 17.0789C13.6185 19.2168 15.353 20.9512 17.4908 20.9512C19.6288 20.9512 21.3632 19.2168 21.3632 17.0789C21.3632 14.9409 19.6288 13.2065 17.4908 13.2065ZM17.4908 19.5907C16.104 19.5907 14.979 18.4659 14.979 17.0789C14.979 15.6918 16.104 14.567 17.4908 14.567C18.8779 14.567 20.0027 15.6918 20.0027 17.0789C20.0027 18.4659 18.8779 19.5907 17.4908 19.5907Z" fill="black"/>
<path d="M22.4204 13.0534C22.4204 13.5527 22.0156 13.9574 21.5163 13.9574C21.017 13.9574 20.6122 13.5527 20.6122 13.0534C20.6122 12.5541 21.017 12.1494 21.5163 12.1494C22.0156 12.1494 22.4204 12.5541 22.4204 13.0534Z" fill="black"/>
</g>
<defs>
<clipPath id="clip0_7_4870">
<rect width="15.0741" height="15.0741" fill="white" transform="translate(9.92584 9.54053)"/>
</clipPath>
</defs>
</svg>
