<svg width="34" height="34" viewBox="0 0 34 34" fill="none" xmlns="http://www.w3.org/2000/svg">
<rect x="0.496216" y="0.496094" width="33.163" height="33.163" rx="3.76852" fill="white"/>
<g clip-path="url(#clip0_7_4869)">
<path d="M24.611 24.6148V24.6142H24.6147V19.0858C24.6147 16.3812 24.0325 14.2979 20.8707 14.2979C19.3507 14.2979 18.3307 15.132 17.9143 15.9227H17.8703V14.5503H14.8725V24.6142H17.9941V19.6309C17.9941 18.3189 18.2428 17.0501 19.8676 17.0501C21.4686 17.0501 21.4925 18.5475 21.4925 19.7151V24.6148H24.611Z" fill="black"/>
<path d="M9.78937 14.5508H12.9147V24.6146H9.78937V14.5508Z" fill="black"/>
<path d="M11.3508 9.54053C10.3515 9.54053 9.54065 10.3514 9.54065 11.3507C9.54065 12.35 10.3515 13.1778 11.3508 13.1778C12.3501 13.1778 13.1609 12.35 13.1609 11.3507C13.1603 10.3514 12.3495 9.54053 11.3508 9.54053V9.54053Z" fill="black"/>
</g>
<defs>
<clipPath id="clip0_7_4869">
<rect width="15.0741" height="15.0741" fill="white" transform="translate(9.54065 9.54053)"/>
</clipPath>
</defs>
</svg>
