<svg width="48" height="49" viewBox="0 0 48 49" fill="none" xmlns="http://www.w3.org/2000/svg">
<path opacity="0.2" d="M24.0831 42.3549C33.944 42.3549 41.9379 34.361 41.9379 24.5001C41.9379 14.6391 33.944 6.64526 24.0831 6.64526C14.2222 6.64526 6.2283 14.6391 6.2283 24.5001C6.2283 34.361 14.2222 42.3549 24.0831 42.3549Z" fill="#FF8800"/>
<path d="M24.0831 42.3549C33.944 42.3549 41.9379 34.361 41.9379 24.5001C41.9379 14.6391 33.944 6.64526 24.0831 6.64526C14.2222 6.64526 6.2283 14.6391 6.2283 24.5001C6.2283 34.361 14.2222 42.3549 24.0831 42.3549Z" stroke="#FF8800" stroke-width="2.5" stroke-miterlimit="10"/>
<path d="M31.8161 28.963C31.0318 30.3196 29.9043 31.4461 28.547 32.2292C27.1897 33.0123 25.6502 33.4246 24.0831 33.4246C22.5161 33.4246 20.9766 33.0124 19.6193 32.2293C18.2619 31.4462 17.1345 30.3198 16.3501 28.9631" stroke="#FF8800" stroke-width="2.5" stroke-linecap="round" stroke-linejoin="round"/>
<path d="M16.7366 20.7802C16.7366 20.4207 17.028 20.1292 17.3876 20.1292C17.7471 20.1292 18.0385 20.4207 18.0385 20.7802C18.0385 21.1397 17.7471 21.4311 17.3876 21.4311C17.028 21.4311 16.7366 21.1397 16.7366 20.7802Z" fill="#FF8800" stroke="#FF8800" stroke-width="5.76561"/>
<path d="M30.1277 20.7802C30.1277 20.4207 30.4191 20.1292 30.7786 20.1292C31.1382 20.1292 31.4296 20.4207 31.4296 20.7802C31.4296 21.1397 31.1382 21.4311 30.7786 21.4311C30.4191 21.4311 30.1277 21.1397 30.1277 20.7802Z" fill="#FF8800" stroke="#FF8800" stroke-width="5.76561"/>
</svg>
