<svg width="49" height="49" viewBox="0 0 49 49" fill="none" xmlns="http://www.w3.org/2000/svg">
<path opacity="0.2" d="M16.7725 30.4515C22.1138 30.4515 26.4438 26.1215 26.4438 20.7801C26.4438 15.4388 22.1138 11.1088 16.7725 11.1088C11.4311 11.1088 7.10114 15.4388 7.10114 20.7801C7.10114 26.1215 11.4311 30.4515 16.7725 30.4515Z" fill="#0F9918"/>
<path d="M16.7725 30.4515C22.1138 30.4515 26.4438 26.1215 26.4438 20.7801C26.4438 15.4388 22.1138 11.1088 16.7725 11.1088C11.4311 11.1088 7.10114 15.4388 7.10114 20.7801C7.10114 26.1215 11.4311 30.4515 16.7725 30.4515Z" stroke="#0F9918" stroke-width="2.5" stroke-miterlimit="10"/>
<path d="M29.3102 11.4692C30.6404 11.0944 32.0355 11.009 33.4015 11.2188C34.7675 11.4286 36.0727 11.9286 37.2291 12.6853C38.3856 13.442 39.3665 14.4377 40.1057 15.6054C40.8449 16.7731 41.3254 18.0856 41.5146 19.4546C41.7039 20.8236 41.5976 22.2172 41.2029 23.5417C40.8081 24.8661 40.1342 26.0906 39.2264 27.1326C38.3186 28.1747 37.198 29.0101 35.9402 29.5826C34.6823 30.1551 33.3164 30.4514 31.9344 30.4516" stroke="#0F9918" stroke-width="2.5" stroke-linecap="round" stroke-linejoin="round"/>
<path d="M3.38031 37.407C4.89078 35.2584 6.89602 33.5049 9.22673 32.2943C11.5575 31.0838 14.1452 30.4518 16.7716 30.4517C19.3979 30.4516 21.9857 31.0834 24.3165 32.2937C26.6473 33.5041 28.6527 35.2575 30.1634 37.406" stroke="#0F9918" stroke-width="2.5" stroke-linecap="round" stroke-linejoin="round"/>
<path d="M31.9344 30.4517C34.561 30.4498 37.1494 31.0808 39.4804 32.2913C41.8114 33.5019 43.8164 35.2563 45.3256 37.406" stroke="#0F9918" stroke-width="2.5" stroke-linecap="round" stroke-linejoin="round"/>
</svg>
