<svg width="34" height="34" viewBox="0 0 34 34" fill="none" xmlns="http://www.w3.org/2000/svg">
<rect x="0.30365" y="0.496094" width="33.163" height="33.163" rx="3.76852" fill="white"/>
<g clip-path="url(#clip0_7_4868)">
<path d="M24.4222 12.4036C23.8616 12.6494 23.2643 12.8124 22.6415 12.8916C23.2822 12.5091 23.7711 11.908 24.001 11.1835C23.4037 11.5396 22.7442 11.7912 22.0414 11.9315C21.4742 11.3276 20.6659 10.9536 19.7841 10.9536C18.0731 10.9536 16.6958 12.3423 16.6958 14.0447C16.6958 14.2897 16.7165 14.5252 16.7674 14.7495C14.1982 14.6241 11.9248 13.3928 10.3976 11.517C10.131 11.9796 9.9746 12.5091 9.9746 13.0791C9.9746 14.1493 10.5257 15.098 11.3473 15.6473C10.8508 15.6379 10.3637 15.4937 9.95105 15.2667C9.95105 15.2761 9.95105 15.2884 9.95105 15.3006C9.95105 16.8024 11.0222 18.0497 12.427 18.3371C12.1754 18.4059 11.9013 18.4388 11.6167 18.4388C11.4189 18.4388 11.2192 18.4275 11.0317 18.3861C11.4321 19.6099 12.5683 20.5096 13.9193 20.5388C12.8679 21.3613 11.5329 21.8569 10.0877 21.8569C9.83422 21.8569 9.59115 21.8456 9.34808 21.8145C10.717 22.6973 12.3393 23.2013 14.0889 23.2013C19.7756 23.2013 22.8846 18.4906 22.8846 14.4075C22.8846 14.2709 22.8799 14.139 22.8733 14.008C23.4866 13.5727 24.002 13.0291 24.4222 12.4036Z" fill="black"/>
</g>
<defs>
<clipPath id="clip0_7_4868">
<rect width="15.0741" height="15.0741" fill="white" transform="translate(9.34808 9.54053)"/>
</clipPath>
</defs>
</svg>
