<svg width="34" height="34" viewBox="0 0 34 34" fill="none" xmlns="http://www.w3.org/2000/svg">
<rect x="0.688812" y="0.496094" width="33.163" height="33.163" rx="3.76852" fill="white"/>
<g clip-path="url(#clip0_1303_4319)">
<path fill-rule="evenodd" clip-rule="evenodd" d="M23.1682 12.1304C23.8138 12.3043 24.323 12.8133 24.4967 13.4591C24.8197 14.6386 24.8073 17.0972 24.8073 17.0972C24.8073 17.0972 24.8073 19.5432 24.4969 20.7228C24.323 21.3685 23.814 21.8776 23.1682 22.0514C21.9886 22.3619 17.2702 22.3619 17.2702 22.3619C17.2702 22.3619 12.5642 22.3619 11.3723 22.0391C10.7265 21.8652 10.2175 21.3561 10.0436 20.7104C9.73325 19.5432 9.73325 17.0848 9.73325 17.0848C9.73325 17.0848 9.73325 14.6386 10.0436 13.4591C10.2174 12.8135 10.739 12.2919 11.3722 12.1181C12.5518 11.8076 17.2701 11.8076 17.2701 11.8076C17.2701 11.8076 21.9886 11.8076 23.1682 12.1304ZM19.6913 17.0848L15.7677 19.3447V14.8249L19.6913 17.0848Z" fill="black"/>
</g>
<defs>
<clipPath id="clip0_1303_4319">
<rect width="15.0741" height="15.0741" fill="white" transform="translate(9.73325 9.54053)"/>
</clipPath>
</defs>
</svg>
