<svg width="16" height="14" viewBox="0 0 16 14" fill="none" xmlns="http://www.w3.org/2000/svg">
<path d="M2.11607 11.4018C2.11607 11.4018 2.14435 11.3735 2.20089 11.317C2.25744 11.2605 2.28571 11.1548 2.28571 11C2.28571 10.8453 2.22917 10.7113 2.11607 10.5982C2.00298 10.4852 1.86905 10.4286 1.71429 10.4286C1.55952 10.4286 1.4256 10.4852 1.3125 10.5982C1.1994 10.7113 1.14286 10.8453 1.14286 11C1.14286 11.1548 1.1994 11.2887 1.3125 11.4018C1.4256 11.5149 1.55952 11.5715 1.71429 11.5715C1.86905 11.5715 2.00298 11.5149 2.11607 11.4018ZM14.8571 5.85718C14.8571 5.55361 14.7411 5.28724 14.5089 5.05807C14.2768 4.8289 14.0119 4.71432 13.7143 4.71432H8.57143C8.57143 4.59527 8.61607 4.45093 8.70536 4.28128C8.79464 4.11164 8.89286 3.94795 9 3.79021C9.10714 3.63247 9.20536 3.43009 9.29464 3.18307C9.38393 2.93605 9.42857 2.68456 9.42857 2.42861C9.42857 2.0298 9.29613 1.73962 9.03125 1.55807C8.76637 1.37652 8.42262 1.28575 8 1.28575C7.85714 1.28575 7.58929 1.69944 7.19643 2.52682C7.05357 2.78872 6.94345 2.98218 6.86607 3.10718C6.62798 3.48813 6.29464 3.91968 5.86607 4.40182C5.44345 4.88396 5.14286 5.19944 4.96429 5.34825C4.55357 5.68753 4.1369 5.85718 3.71429 5.85718H3.42857V11.5715H3.71429C4.14286 11.5715 4.63988 11.6667 5.20536 11.8572C5.77083 12.0477 6.34673 12.2381 6.93304 12.4286C7.51935 12.6191 8.05357 12.7143 8.53572 12.7143C9.66072 12.7143 10.2232 12.2173 10.2232 11.2232C10.2232 11.0685 10.2083 10.9018 10.1786 10.7232C10.3571 10.628 10.4985 10.4718 10.6027 10.2545C10.7068 10.0372 10.7589 9.81849 10.7589 9.59825C10.7589 9.37801 10.7054 9.17265 10.5982 8.98218C10.9137 8.68456 11.0714 8.33039 11.0714 7.91968C11.0714 7.77087 11.0417 7.60569 10.9821 7.42414C10.9226 7.24259 10.8482 7.10122 10.7589 7.00003H13.7143C14.0238 7.00003 14.2917 6.88694 14.5179 6.66075C14.744 6.43456 14.8571 6.1667 14.8571 5.85718ZM16 5.84825C16 6.47325 15.7753 7.01194 15.3259 7.46432C14.8765 7.9167 14.3393 8.14289 13.7143 8.14289H12.2054C12.1815 8.51194 12.0714 8.86611 11.875 9.20539C11.8929 9.33039 11.9018 9.45837 11.9018 9.58932C11.9018 10.1905 11.7232 10.7203 11.3661 11.1786C11.372 12.006 11.119 12.6593 10.6071 13.1384C10.0952 13.6176 9.41964 13.8572 8.58036 13.8572C7.78869 13.8572 6.83036 13.6518 5.70536 13.2411C4.72917 12.8899 4.06548 12.7143 3.71429 12.7143H1.14286C0.827381 12.7143 0.558036 12.6027 0.334821 12.3795C0.111607 12.1563 0 11.8869 0 11.5715V5.85718C0 5.5417 0.111607 5.27236 0.334821 5.04914C0.558036 4.82593 0.827381 4.71432 1.14286 4.71432H3.71429C3.77381 4.71432 3.8378 4.70093 3.90625 4.67414C3.9747 4.64736 4.04464 4.60569 4.11607 4.54914C4.1875 4.49259 4.25446 4.43902 4.31696 4.38843C4.37946 4.33783 4.45089 4.27087 4.53125 4.18753C4.61161 4.1042 4.67262 4.04021 4.71429 3.99557C4.75595 3.95093 4.8125 3.88694 4.88393 3.80361C4.95536 3.72027 4.99702 3.66968 5.00893 3.65182C5.39583 3.21134 5.69345 2.82742 5.90179 2.50003C5.97917 2.37503 6.07738 2.19051 6.19643 1.94646C6.31548 1.70242 6.4256 1.48813 6.52679 1.30361C6.62798 1.11908 6.74851 0.931581 6.88839 0.741106C7.02827 0.55063 7.19196 0.403308 7.37946 0.299142C7.56696 0.194975 7.77381 0.142891 8 0.142891C8.74405 0.142891 9.35863 0.342297 9.84375 0.741106C10.3289 1.13992 10.5714 1.70242 10.5714 2.42861C10.5714 2.83337 10.506 3.21432 10.375 3.57146H13.7143C14.3333 3.57146 14.869 3.79765 15.3214 4.25003C15.7738 4.70242 16 5.23515 16 5.84825Z" fill="#2C416C"/>
</svg>
